# xmcd
#
# Track frame offsets: 
#        150
#        15987
#        32514
#        44684
#        62895
#        77581
#        94626
#        111942
#        127935
#        141967
#        154546
#        172786
#        189485
#        204393
#        221415
#        234659
#        247407
#        266876
#        285180
#        303645
#        321613
#
# Disc length: 4592 seconds
#
# Revision: 0
# Processed by: cddbd v1.5.2PL0 Copyright (c) Steve Scherf et al.
# Submitted via: ExactAudioCopyFreeDBPlugin 1.0
#
DISCID=2911ee15
DTITLE=Scooter Lee - The Best Of
DYEAR=1900
DGENRE=Contry
TTITLE0=Honky Tonk Twist
TTITLE1=J#ai Du Boogie
TTITLE2=Dizzy
TTITLE3=Ribbon Of Highway
TTITLE4=Honey Hush
TTITLE5=Shadows In The Night
TTITLE6=Old Friend
TTITLE7=Rose Garden
TTITLE8=High Test Love
TTITLE9=Rompin' Stompin'
TTITLE10=Somebody Loves You
TTITLE11=Take It Fro Me
TTITLE12=Baby Please Come Home
TTITLE13=I Still Believe
TTITLE14=Walk On By
TTITLE15=Here Lately
TTITLE16=Baby Once I Get You ( Mix)
TTITLE17=Rex The Robot
TTITLE18=Break-A-Way
TTITLE19=Deal With It (Mix)
TTITLE20=Dancin' In The Streets
EXTD=
EXTT0=
EXTT1=
EXTT2=
EXTT3=
EXTT4=
EXTT5=
EXTT6=
EXTT7=
EXTT8=
EXTT9=
EXTT10=
EXTT11=
EXTT12=
EXTT13=
EXTT14=
EXTT15=
EXTT16=
EXTT17=
EXTT18=
EXTT19=
EXTT20=
PLAYORDER=
